#!OML:ASF F:\VICON\USERDATA\INSTALL\rory3\rory3.ASF
:FULLY-SPECIFIED
:DEGREES
166
root 1.19369 17.1826 -16.2361 16.6694 1.14543 0.372667
lowerback 19.7102 -0.347891 0.0438603
upperback 2.69026 -0.145695 3.31457
thorax -8.11179 -0.0186299 3.61341
lowerneck -19.2548 -4.11859 -9.09139
upperneck 15.235 -4.12145 5.39516
head 8.19425 -1.94199 2.77056
rclavicle 5.56597e-015 9.54166e-015
rhumerus -23.6188 -1.40428 -84.2282
rradius 47.6739
rwrist 2.61327
rhand -10.1368 7.96203
rfingers 7.12502
rthumb 15.8519 -21.4091
lclavicle 5.56597e-015 9.54166e-015
lhumerus -23.3294 -2.08087 89.7444
lradius 39.6711
lwrist -4.66245
lhand -18.0975 23.7737
lfingers 7.12502
lthumb 8.17622 53.5955
rfemur -38.2732 -0.0536478 18.904
rtibia 43.1002
rfoot -16.3029 -7.29554
rtoes -1.45576
lfemur -39.2939 0.597509 -20.3801
ltibia 42.4262
lfoot -17.0293 -1.18726
ltoes 0.731386
167
root 1.19263 17.1871 -16.2317 16.7502 1.12327 0.35126
lowerback 19.802 -0.356367 -0.0210907
upperback 2.73675 -0.166931 3.34907
thorax -8.109 -0.0266957 3.69516
lowerneck -19.4153 -4.1048 -9.19429
upperneck 15.2349 -4.06457 5.42763
head 8.22045 -1.91564 2.80444
rclavicle 1.98785e-015 -2.8625e-014
rhumerus -23.5053 -1.09489 -84.2654
rradius 47.8137
rwrist 2.62087
rhand -11.2141 8.72005
rfingers 7.12502
rthumb 14.8142 -20.7304
lclavicle 1.98785e-015 -2.8625e-014
lhumerus -23.2487 -1.92024 89.7481
lradius 39.8265
lwrist -4.70898
lhand -18.1558 23.6354
lfingers 7.12502
lthumb 8.11992 53.4594
rfemur -38.2678 0.022595 18.8911
rtibia 42.9644
rfoot -16.3547 -7.19653
rtoes -0.41962
lfemur -39.306 0.421529 -20.3019
ltibia 42.3319
lfoot -17.0531 -0.893414
ltoes 0.221827
168
root 1.19182 17.188 -16.2264 16.8685 1.21699 0.321107
lowerback 19.8727 -0.393811 0.00756879
upperback 2.74599 -0.20624 3.37332
thorax -8.13473 -0.0456652 3.71712
lowerneck -19.4247 -4.14041 -9.22577
upperneck 15.1566 -4.0981 5.41285
head 8.19874 -1.934 2.79938
rclavicle -3.97569e-016 1.03368e-014
rhumerus -23.5675 -0.847855 -84.2626
rradius 48.1146
rwrist 2.75553
rhand -12.2342 9.76315
rfingers 7.12502
rthumb 13.8314 -19.757
lclavicle -3.97569e-016 1.03368e-014
lhumerus -23.1561 -1.97334 89.7404
lradius 39.9112
lwrist -4.65699
lhand -18.093 24.4496
lfingers 7.12502
lthumb 8.18057 54.2712
rfemur -38.2737 -0.0997961 18.9784
rtibia 42.769
rfoot -16.2668 -7.23935
rtoes -0.839088
lfemur -39.3506 0.120834 -20.1701
ltibia 42.2086
lfoot -17.0192 -0.63941
ltoes 0.465652
169
root 1.19463 17.196 -16.2218 17.0271 1.30961 0.213796
lowerback 19.9123 -0.430586 0.201507
upperback 2.7298 -0.211143 3.37757
thorax -8.17447 -0.053227 3.613
lowerneck -19.3922 -4.18881 -9.1675
upperneck 15.0324 -4.17421 5.38261
head 8.15526 -1.96893 2.76902
rclavicle 3.97569e-016 2.38542e-015
rhumerus -23.5615 -0.690379 -84.3045
rradius 48.2822
rwrist 2.60188
rhand -11.9364 9.77028
rfingers 7.12502
rthumb 14.1183 -19.7301
lclavicle 3.97569e-016 2.38542e-015
lhumerus -23.1944 -2.11853 89.7217
lradius 40.0862
lwrist -4.45871
lhand -18.4859 24.3955
lfingers 7.12502
lthumb 7.80134 54.2315
rfemur -38.2933 -0.226677 19.1411
rtibia 42.5459
rfoot -16.1936 -7.30559
rtoes -1.54071
lfemur -39.4389 -0.0686478 -19.9987
ltibia 42.0715
lfoot -17.065 -0.481545
ltoes 0.118395
170
root 1.19723 17.2053 -16.215 17.1793 1.20268 0.0408775
lowerback 19.9688 -0.374931 0.36036
upperback 2.77402 -0.10369 3.39059
thorax -8.1636 -0.00711848 3.50786
lowerneck -19.7228 -4.19798 -9.14799
upperneck 15.0939 -4.16518 5.39726
head 8.23171 -1.95777 2.76949
rclavicle -7.95139e-015 7.95139e-016
rhumerus -23.4742 -0.467012 -84.3647
rradius 48.7098
rwrist 2.25243
rhand -11.3917 8.67194
rfingers 7.12502
rthumb 14.6431 -20.791
lclavicle -7.95139e-015 7.95139e-016
lhumerus -23.1243 -2.33913 89.7422
lradius 40.2998
lwrist -4.18553
lhand -19.0434 23.5353
lfingers 7.12502
lthumb 7.26327 53.3906
rfemur -38.3491 -0.147559 19.3067
rtibia 42.3417
rfoot -16.1078 -7.30171
rtoes -1.80009
lfemur -39.5358 -0.131063 -19.7835
ltibia 41.9536
lfoot -17.1259 -0.284695
ltoes -0.328153
171
root 1.19895 17.2071 -16.2109 17.283 1.12391 -0.010658
lowerback 20.1648 -0.324659 0.426697
upperback 2.82295 -0.0249329 3.34425
thorax -8.2206 0.0279026 3.40129
lowerneck -19.985 -4.2424 -9.15686
upperneck 15.1392 -4.22169 5.50877
head 8.299 -1.97002 2.79942
rclavicle 6.36111e-015 7.95139e-015
rhumerus -23.5362 -0.290862 -84.4603
rradius 49.3006
rwrist 2.15064
rhand -11.5998 8.52861
rfingers 7.12502
rthumb 14.4426 -20.9488
lclavicle 6.36111e-015 7.95139e-015
lhumerus -23.0261 -2.66217 89.7212
lradius 40.599
lwrist -3.9308
lhand -18.9896 22.9301
lfingers 7.12502
lthumb 7.31516 52.7836
rfemur -38.416 -0.0815321 19.344
rtibia 42.2206
rfoot -16.048 -7.28056
rtoes -1.72081
lfemur -39.6009 -0.296859 -19.6724
ltibia 41.8734
lfoot -17.2135 0.0163892
ltoes -0.862837
172
root 1.20177 17.2033 -16.2099 17.4206 1.08102 -0.0607702
lowerback 20.4405 -0.298548 0.477515
upperback 2.76087 0.0268316 3.32188
thorax -8.44066 0.0531464 3.34092
lowerneck -19.7978 -4.25539 -9.16151
upperneck 14.9858 -4.25636 5.53398
head 8.21856 -1.98559 2.80478
rclavicle 5.56597e-015 5.1684e-014
rhumerus -23.6805 -0.135092 -84.5164
rradius 49.6187
rwrist 2.00417
rhand -11.7275 8.99455
rfingers 7.12502
rthumb 14.3196 -20.4916
lclavicle 5.56597e-015 5.1684e-014
lhumerus -23.2301 -2.86748 89.7246
lradius 41.1404
lwrist -3.81867
lhand -18.7378 23.3275
lfingers 7.12502
lthumb 7.55827 53.1725
rfemur -38.5408 -0.0842027 19.3958
rtibia 42.1747
rfoot -16.0755 -7.24758
rtoes -1.64056
lfemur -39.7418 -0.501281 -19.5485
ltibia 41.8773
lfoot -17.3499 0.298413
ltoes -1.09465
173
root 1.20502 17.1996 -16.2029 17.6181 0.866508 -0.12521
lowerback 20.5248 -0.223254 0.425456
upperback 2.76309 0.114405 3.3135
thorax -8.48867 0.0966356 3.33944
lowerneck -19.6618 -4.19304 -9.09696
upperneck 14.7803 -4.18302 5.46573
head 8.11732 -1.95448 2.78081
rclavicle -1.78906e-014 -3.26007e-014
rhumerus -23.7275 0.0815033 -84.5647
rradius 49.9028
rwrist 1.88722
rhand -11.5988 9.41689
rfingers 7.12502
rthumb 14.4436 -20.0605
lclavicle -1.78906e-014 -3.26007e-014
lhumerus -23.43 -2.90597 89.7412
lradius 41.7954
lwrist -3.7687
lhand -18.5646 23.9824
lfingers 7.12502
lthumb 7.72538 53.8213
rfemur -38.7331 0.0349739 19.4134
rtibia 42.15
rfoot -16.2165 -7.16535
rtoes -1.07891
lfemur -39.9328 -0.488664 -19.4871
ltibia 41.9355
lfoot -17.4596 0.553524
ltoes -1.1499
174
root 1.20566 17.1978 -16.1961 17.7927 0.722868 -0.281908
lowerback 20.6051 -0.16556 0.486616
upperback 2.85756 0.202296 3.32039
thorax -8.43291 0.135288 3.28738
lowerneck -19.8516 -4.18 -9.02332
upperneck 14.6327 -4.16827 5.48809
head 8.09762 -1.93703 2.77594
rclavicle -1.19271e-015 -1.19271e-014
rhumerus -23.6152 0.216784 -84.6253
rradius 50.1653
rwrist 1.98032
rhand -11.7473 10.1518
rfingers 7.12502
rthumb 14.3005 -19.3358
lclavicle -1.19271e-015 -1.19271e-014
lhumerus -23.463 -3.06879 89.7278
lradius 42.3549
lwrist -3.75803
lhand -18.2686 24.4095
lfingers 7.12502
lthumb 8.01107 54.2376
rfemur -38.9215 0.14957 19.5681
rtibia 42.1075
rfoot -16.295 -7.25344
rtoes -1.23607
lfemur -40.1327 -0.446411 -19.3101
ltibia 42.0172
lfoot -17.539 0.718741
ltoes -0.850211
